<svg width="432" height="433" viewBox="0 0 432 433" fill="none" xmlns="http://www.w3.org/2000/svg">
<path d="M147.53 0.500684H150.266C243.707 0.500684 288.744 37.3301 296.531 119.828C297.373 128.457 291.059 136.243 282.22 137.085C273.802 137.927 265.805 131.403 264.963 122.774C258.86 56.6919 227.713 32.0688 150.055 32.0688H147.319C61.6647 32.0688 31.3593 62.3741 31.3593 148.029L31.3593 285.245C31.3593 370.9 61.6647 401.205 147.319 401.205H150.055C228.134 401.205 259.281 376.161 264.963 308.816C266.015 300.187 273.381 293.663 282.22 294.505C291.059 295.137 297.373 302.923 296.742 311.552C289.586 395.313 244.339 432.773 150.266 432.773H147.53C44.197 432.773 0.00168143 388.578 0.00168143 285.245L0.00168143 148.029C0.00168143 44.696 44.197 0.500684 147.53 0.500684Z" fill="#292D32"/>
<path d="M152.65 200.864L392.146 200.864C400.774 200.864 407.93 208.019 407.93 216.648C407.93 225.276 400.774 232.432 392.146 232.432L152.65 232.432C144.021 232.432 136.866 225.276 136.866 216.648C136.866 208.019 144.021 200.864 152.65 200.864Z" fill="#292D32"/>
<path d="M345.208 130.365C349.207 130.365 353.205 131.838 356.362 134.995L426.864 205.497C432.967 211.6 432.967 221.702 426.864 227.805L356.362 298.307C350.259 304.411 340.157 304.411 334.054 298.307C327.951 292.204 327.951 282.102 334.054 275.999L393.402 216.651L334.054 157.303C327.951 151.2 327.951 141.098 334.054 134.995C337 131.838 341.209 130.365 345.208 130.365Z" fill="#292D32"/>
</svg>
